<?xml version="1.0" standalone="no"?>
<!DOCTYPE svg PUBLIC "-//W3C//DTD SVG 20010904//EN"
 "http://www.w3.org/TR/2001/REC-SVG-20010904/DTD/svg10.dtd">
<svg version="1.0" xmlns="http://www.w3.org/2000/svg"
 width="773.000000pt" height="162.000000pt" viewBox="0 0 773.000000 162.000000"
 preserveAspectRatio="xMidYMid meet">

<g transform="translate(0.000000,162.000000) scale(0.100000,-0.100000)"
fill="#000000" stroke="none">
<path d="M531 1145 c-35 -30 -55 -83 -46 -125 3 -16 22 -43 41 -60 69 -60 168
-29 196 61 9 33 9 45 -5 74 -35 73 -129 98 -186 50z"/>
<path d="M922 1156 c-56 -31 -80 -120 -46 -172 34 -51 125 -71 172 -38 49 34
68 126 36 172 -33 47 -112 66 -162 38z"/>
<path d="M2045 1060 c-56 -62 36 -149 95 -90 11 11 20 33 20 49 0 55 -78 82
-115 41z"/>
<path d="M2530 971 l0 -109 -37 19 c-63 32 -142 22 -191 -24 -46 -42 -65 -96
-65 -177 0 -116 40 -180 130 -206 61 -18 107 -12 141 19 l22 20 0 -21 c0 -20
5 -22 55 -22 l55 0 0 305 0 305 -55 0 -55 0 0 -109z m-45 -167 c43 -17 70
-140 43 -199 -23 -50 -93 -70 -137 -39 -48 34 -63 113 -35 183 20 52 76 75
129 55z"/>
<path d="M4540 770 l0 -310 50 0 50 0 0 95 c0 52 3 95 8 95 4 -1 41 -43 82
-95 l75 -94 64 -1 65 0 -25 28 c-14 15 -60 67 -103 116 l-78 88 38 42 c22 22
63 67 94 99 l54 57 -64 -1 -65 0 -70 -82 -70 -81 -3 177 -2 177 -50 0 -50 0 0
-310z"/>
<path d="M2835 883 c-48 -25 -66 -45 -91 -98 -50 -105 -18 -239 68 -288 59
-34 98 -41 164 -27 40 8 67 22 95 47 21 19 39 39 39 44 0 5 -17 17 -38 28
l-39 20 -24 -25 c-52 -51 -144 -40 -173 21 -9 18 -16 36 -16 39 0 3 68 6 150
6 l150 0 0 48 c0 54 -26 117 -61 149 -56 51 -163 69 -224 36z m124 -74 c28
-10 70 -64 58 -75 -2 -3 -48 -3 -100 -2 l-96 3 12 25 c7 14 28 33 47 42 41 21
39 21 79 7z"/>
<path d="M3325 887 c-77 -36 -124 -116 -125 -210 0 -86 38 -150 112 -188 111
-57 230 -15 280 98 43 98 13 219 -69 276 -49 35 -148 47 -198 24z m136 -87
c49 -27 69 -138 34 -197 -44 -74 -140 -70 -180 7 -18 34 -20 112 -4 143 26 51
99 74 150 47z"/>
<path d="M3780 882 c-30 -15 -80 -72 -80 -92 0 -4 18 -12 41 -18 33 -8 41 -8
46 4 7 18 55 44 83 44 27 0 60 -35 60 -64 0 -22 -4 -24 -72 -28 -91 -6 -132
-26 -159 -80 -68 -133 86 -245 208 -152 l32 25 7 -26 c5 -21 12 -25 45 -25
l39 0 0 158 c0 129 -3 163 -18 192 -34 69 -154 102 -232 62z m150 -255 c0 -36
-42 -69 -94 -74 -42 -5 -46 -4 -56 21 -11 29 -1 60 22 69 7 3 39 6 71 6 53 1
57 -1 57 -22z"/>
<path d="M4203 885 c-41 -18 -73 -69 -73 -118 0 -48 35 -87 100 -109 25 -9 63
-22 85 -30 74 -25 51 -78 -34 -78 -32 0 -81 34 -81 57 0 16 -20 14 -75 -7 -31
-12 -31 -15 -3 -56 45 -65 141 -97 223 -74 79 22 131 106 105 169 -13 32 -83
75 -140 86 -60 11 -70 16 -81 36 -27 51 71 70 117 24 l26 -26 34 21 c19 12 34
25 34 29 0 15 -55 64 -87 77 -41 18 -109 17 -150 -1z"/>
<path d="M1540 883 c0 -5 39 -102 87 -216 l87 -208 34 3 35 3 88 210 88 210
-46 3 c-25 2 -49 0 -53 -5 -4 -4 -29 -65 -56 -135 -27 -71 -51 -128 -55 -128
-3 0 -29 61 -58 135 l-52 135 -50 0 c-27 0 -49 -3 -49 -7z"/>
<path d="M2040 675 l0 -215 55 0 55 0 0 215 0 215 -55 0 -55 0 0 -215z"/>
<path d="M388 773 c-59 -15 -13 -157 85 -260 95 -101 258 -157 389 -134 144
25 262 114 324 244 19 41 36 87 37 102 4 53 -9 55 -433 54 -212 -1 -393 -3
-402 -6z"/>
</g>
</svg>
